<svg height="512" viewBox="0 0 60 60" width="512" xmlns="http://www.w3.org/2000/svg"><g id="Underlines"><path d="m3 46a1 1 0 0 1 -1-1v-33a7.03 7.03 0 0 1 .943-3.51 6.939 6.939 0 0 1 2.585-2.571 7.022 7.022 0 0 1 8.419 1.134l1.17 1.17a1 1 0 0 1 -1.417 1.414l-1.17-1.17a5.017 5.017 0 0 0 -6.018-.808 4.926 4.926 0 0 0 -1.836 1.831 5.018 5.018 0 0 0 -.676 2.51v33a1 1 0 0 1 -1 1z" fill="#346d92"/></g><g id="Outlines"><circle cx="41" cy="19" fill="#25a3da" r="3"/><path d="m15.538 38.04a2.275 2.275 0 0 1 .29-.34l4.806-4.816 4.25 4.25-4.817 4.806a3.152 3.152 0 0 1 -1.067.69z" fill="#79808f"/><path d="m15.184 32.179h16a0 0 0 0 1 0 0v2.81a2 2 0 0 1 -2 2h-12a2 2 0 0 1 -2-2v-2.81a0 0 0 0 1 0 0z" fill="#8991a0" transform="matrix(.707 .707 -.707 .707 31.248 -6.263)"/><path d="m17.17 17.49-4.24-4.25a2 2 0 0 1 0-2.83l2.83-2.82a1.986 1.986 0 0 1 2.83 0l4.24 4.24z" fill="#8991a0"/><path d="m50.18 46.6-4.26 3.04a.99.99 0 0 1 -1.29-.11l-3.77-3.77 3.59-4.89 3.55 2.13z" fill="#79808f"/><path d="m54.17 43.75-3.99 2.85-5.73-5.73 3.58-4.9 6.26 6.26a.992.992 0 0 1 -.12 1.52z" fill="#8991a0"/><path d="m45.1 41.52-4.95 4.95a1.992 1.992 0 0 1 -2.82 0l-25.75-25.74a2 2 0 0 1 0-2.83l4.95-4.95 1.47.05z" fill="#b9bfcc"/><path d="m55.5 38.15-8.1 4.63a1.016 1.016 0 0 1 -1.21-.17l-29.66-29.66 6.37-6.36a1.974 1.974 0 0 1 2.82 0l29.99 29.98a1.01 1.01 0 0 1 -.21 1.58z" fill="#ccd0da"/><path d="m19 41.165v11.835a3 3 0 0 1 -3 3h-11v-6h7a1 1 0 0 0 1-1v-8a3 3 0 0 1 3.156-3 3.111 3.111 0 0 1 2.844 3.165z" fill="#8991a0"/><path d="m2 45h2a2 2 0 0 1 2 2v10a2 2 0 0 1 -2 2h-2a1 1 0 0 1 -1-1v-12a1 1 0 0 1 1-1z" fill="#79808f"/></g><g id="Outer_Lines" fill="#25a3da" data-name="Outer Lines"><path d="m59 20a1 1 0 0 1 -1-1 17.019 17.019 0 0 0 -17-17 1 1 0 0 1 0-2 19.021 19.021 0 0 1 19 19 1 1 0 0 1 -1 1z"/><path d="m54 20a1 1 0 0 1 -1-1 12.013 12.013 0 0 0 -12-12 1 1 0 0 1 0-2 14.015 14.015 0 0 1 14 14 1 1 0 0 1 -1 1z"/><path d="m49 20a1 1 0 0 1 -1-1 7.009 7.009 0 0 0 -7-7 1 1 0 0 1 0-2 9.01 9.01 0 0 1 9 9 1 1 0 0 1 -1 1z"/></g></svg>