<svg id="Layer_1" enable-background="new 0 0 464 464" height="512" viewBox="0 0 464 464" width="512" xmlns="http://www.w3.org/2000/svg"><g><path d="m89.151 103.592v256.682c0 7.913 7.399 13.702 14.999 11.737l350.819-90.72c5.314-1.374 9.031-6.204 9.031-11.737v-256.681c0-7.913-7.399-13.702-14.999-11.737l-350.819 90.719c-5.315 1.375-9.031 6.205-9.031 11.737z" fill="#9ae1ff"/><g><path d="m149.362 205.61c-.891 0-1.702-.598-1.936-1.5-.276-1.07.366-2.161 1.436-2.438l279.417-72.256c1.072-.275 2.16.367 2.438 1.436.276 1.07-.366 2.161-1.436 2.438l-279.417 72.256c-.168.043-.337.064-.502.064z" fill="#52528c"/></g><g><path d="m149.362 252.098c-.891 0-1.702-.598-1.936-1.5-.276-1.07.366-2.161 1.436-2.438l279.417-72.256c1.072-.274 2.16.367 2.438 1.436.276 1.07-.366 2.161-1.436 2.438l-279.417 72.256c-.168.043-.337.064-.502.064z" fill="#52528c"/></g><g><path d="m149.362 293.587c-.891 0-1.702-.598-1.936-1.5-.276-1.069.366-2.16 1.436-2.437l279.417-72.255c1.072-.274 2.16.367 2.438 1.436.276 1.069-.366 2.16-1.436 2.437l-279.417 72.255c-.168.043-.337.064-.502.064z" fill="#52528c"/></g><path d="m0 194.445v256.682c0 7.913 7.399 13.702 14.999 11.737l350.819-90.72c5.314-1.374 9.031-6.204 9.031-11.737v-256.681c0-7.913-7.399-13.702-14.999-11.737l-350.819 90.72c-5.315 1.374-9.031 6.204-9.031 11.736z" fill="#baedfe"/><path d="m264.46 354.95-133.54 40.82-18.04 5.52s6.93-80.75 69.65-104.04c-.28-4.74-.72-9.15-.77-13.42-6.81-2.14-13.14-5.74-18.54-10.84-21.65-20.4-20.26-57.04 3.1-81.83 17.23-18.27 41.59-25 61.88-19.09 7.23 2.1 13.94 5.81 19.63 11.17 21.65 20.41 20.26 57.05-3.1 81.83-4.42 4.68-9.3 8.61-14.46 11.76-.63 5.73-.79 9-1.63 14.59 44.39 7.58 35.82 63.53 35.82 63.53z" fill="#404077"/><path d="m264.46 354.95-133.54 40.82c3.5-20.61 17.61-77.53 68.61-96.48-.28-4.73-.72-9.14-.77-13.41-6.81-2.14-13.14-5.75-18.54-10.84-21.65-20.41-20.26-57.04 3.1-81.84 12.61-13.37 29.03-20.55 44.88-21.13 7.23 2.1 13.94 5.81 19.63 11.17 21.65 20.41 20.26 57.05-3.1 81.83-4.42 4.68-9.3 8.61-14.46 11.76-.63 5.73-.79 9-1.63 14.59 44.39 7.58 35.82 63.53 35.82 63.53z" fill="#52528c"/><path d="m392.26 351.46v81.11c0 7.83-5.83 14.43-13.6 15.38l-123.08 15.18c-2.74.34-5.48-.06-7.95-1.11-2.03-.86-3.87-2.15-5.4-3.82l-18.86-20.67c-2.6-2.85-4.05-6.58-4.05-10.45v-84.01c0-8.07 6.19-14.79 14.24-15.45l121.28-9.93c4.21-.35 8.39 1.05 11.55 3.85l20.66 18.32c1.53 1.36 2.76 2.99 3.63 4.79 0 0 .01.03.04.09.06.12.16.35.32.7 0 0 .01 0 0 .01.8 1.88 1.22 3.92 1.22 6.01z" fill="#edd15a"/><path d="m392.26 351.46v81.11c0 7.83-5.83 14.43-13.6 15.38l-123.08 15.18c-2.74.34-5.48-.06-7.95-1.11v-88.84c0-7.96 6.02-14.62 13.93-15.42l129.12-13.11s.01.03.04.09c.06.12.16.35.32.7 0 0 .01 0 0 .01.8 1.88 1.22 3.92 1.22 6.01z" fill="#fae26b"/><g fill="#52528c"><path d="m268.52 343.292s-8.533-66.387 38.994-70.999c45.061-4.372 35.414 62.807 35.414 62.807s14.486 10.623 24.234-4.096c0 0 10.403-76.456-58.455-76.456s-64.941 88.744-64.941 88.744 10.949 13.673 24.754 0z"/><path d="m339.833 436.726-11.158-30.119c1.079-.752 2.113-1.613 3.083-2.583 7.869-7.869 8.605-19.891 1.644-26.852s-18.983-6.225-26.852 1.644-8.605 19.891-1.644 26.852c.833.833 1.74 1.552 2.701 2.166l-10.657 33.973z"/></g></g></svg>