<svg id="Layer_1" viewBox="0 0 512 512" xmlns="http://www.w3.org/2000/svg" data-name="Layer 1"><g fill-rule="evenodd"><path d="m192.887 236.996c-9.08 17.743-8.218 38.942 2.272 55.89 10.49 16.947 29.08 27.173 49.01 26.96 6.612-25.238-4.113-51.824-26.385-65.411-10.544-5.749-18.843-11.562-24.896-17.438z" fill="#c9f550"/><path d="m363.917 78.378 28.542-19.14c4.659-3.124 10.73-2.531 14.697 1.435l44.171 44.171c3.966 3.967 4.559 10.038 1.435 14.697l-19.141 28.542 24.289 58.63 33.712 6.646c5.504 1.085 9.378 5.796 9.378 11.406v31.235h-123.019c0-67.368-54.613-121.982-121.982-121.982s-121.981 54.613-121.981 121.982h-123.018v-31.235c0-5.61 3.873-10.321 9.379-11.406l33.711-6.646 24.289-58.63-19.14-28.543c-3.125-4.659-2.532-10.729 1.435-14.697l44.171-44.171c3.967-3.966 10.038-4.559 14.697-1.435l28.542 19.14 58.629-24.289 6.647-33.713c1.085-5.504 5.796-9.377 11.407-9.377h62.469c5.609 0 10.322 3.872 11.407 9.377l6.647 33.713 58.629 24.289z" fill="#d1d1d6"/><path d="m127.852 173.966c3.337 1.918 4.488 6.178 2.57 9.516s-6.178 4.488-9.516 2.57l-14.598-8.428c-3.337-1.918-4.488-6.178-2.57-9.516s6.178-4.488 9.516-2.57l14.599 8.428zm263.24 12.086c-3.337 1.918-7.598.767-9.516-2.57s-.767-7.598 2.57-9.516l14.599-8.428c3.337-1.918 7.598-.767 9.516 2.57s.767 7.598-2.57 9.516l-14.598 8.428zm-53.059-58.172c-1.933 3.337-6.206 4.476-9.543 2.543s-4.476-6.206-2.543-9.543l8.428-14.598c1.933-3.337 6.206-4.476 9.543-2.543s4.476 6.206 2.543 9.543zm-75.034-23.862c0 3.866-3.134 7-7 7s-7-3.134-7-7v-16.857c0-3.866 3.134-7 7-7s7 3.134 7 7zm-76.948 16.889c1.918 3.337.767 7.598-2.57 9.516s-7.598.767-9.516-2.57l-8.428-14.598c-1.918-3.337-.767-7.598 2.57-9.516s7.598-.767 9.516 2.57l8.428 14.599z" fill="#c3c3c9"/><path d="m248.941 360.036c.74 3.79-1.733 7.463-5.523 8.203s-7.463-1.733-8.203-5.523c-3.747-19.014-1.374-38.276 6.126-55.325 7.459-16.955 20.001-31.722 36.65-41.878 3.292-2.008 7.589-.968 9.597 2.324s.968 7.589-2.324 9.597c-14.13 8.62-24.783 21.17-31.126 35.589-6.369 14.479-8.382 30.846-5.196 47.013z" fill="#99d100"/><path d="m316.513 213.394c6.974 13.627 6.312 29.908-1.745 42.924-8.056 13.016-22.334 20.869-37.64 20.706-5.078-19.383 3.159-39.802 20.264-50.237 8.098-4.415 14.472-8.88 19.121-13.393z" fill="#99d100"/><path d="m47.607 480.406c40.458 0 59.027 3.115 70.128 5.892 138.983 34.763 195.699 4.378 303.633-54.463 21.213-11.565 65.999-37.165 79.618-55.736.718-27.842-26.436-34.655-52.209-24.352l-133.302 53.4c3.683-4.799 5.577-10.587 5.063-17.55-.961-13.019-11.425-21.892-34.531-22.109-29.697-.277-62.68-.98-91.931-6.675-35.961-7.001-56.611-18.51-138.503 10.905l-7.967 110.687z" fill="#ffcec0"/><path d="m338.409 395.96-22.934 9.187.002-.002c-7.902 5.058-17.083 8.894-27.583 11.63-21.624 5.635-48.84 6.672-81.927 4.127-3.851-.287-7.205 2.602-7.492 6.453s2.602 7.205 6.453 7.492c34.519 2.656 63.211 1.496 86.467-4.564 14.05-3.661 40.55-12.826 47.015-34.323z" fill="#fdb0a0"/></g><rect fill="#85caff" height="156.47" rx="12.036" width="64.81" x="11" y="341.058"/></svg>