<svg id="Capa_1" enable-background="new 0 0 512 512" viewBox="0 0 512 512" xmlns="http://www.w3.org/2000/svg"><g><path d="m96 512h-40c-8.284 0-15-6.716-15-15v-367l70-28v395c0 8.284-6.716 15-15 15z" fill="#3b4c7a"/><path d="m456 512h-40c-8.284 0-15-6.716-15-15v-395l70 28v367c0 8.284-6.716 15-15 15z" fill="#393057"/><path d="m56 0c-8.284 0-15 6.716-15 15v115h215l33-68-33-62z" fill="#476495"/><path d="m176 342v55c0 8.284 6.716 15 15 15h15v85c0 8.284 6.716 15 15 15h35l25-129-25-121c-44.183 0-80 35.817-80 80z" fill="#ff884d"/><path d="m471 15c0-8.284-6.716-15-15-15h-200v130h215z" fill="#3b4c7a"/><path d="m291 512c8.284 0 15-6.716 15-15v-85h15c8.284 0 15-6.716 15-15v-55c0-44.183-35.817-80-80-80v250z" fill="#ff4d4d"/><path d="m156 80h-40c-8.284 0-15-6.716-15-15s6.716-15 15-15h40c8.284 0 15 6.716 15 15s-6.716 15-15 15z" fill="#fff173"/><path d="m216 50c-8.284 0-15 6.716-15 15s6.716 15 15 15h40l21-16-21-14z" fill="#ff884d"/><path d="m206 232c0 27.57 22.43 50 50 50l20-51-20-49c-27.57 0-50 22.43-50 50z" fill="#ffccbd"/><path d="m306 232c0-27.57-22.43-50-50-50v100c27.57 0 50-22.43 50-50z" fill="#ffbda9"/><path d="m396 80h-40c-8.284 0-15-6.716-15-15s6.716-15 15-15h40c8.284 0 15 6.716 15 15s-6.716 15-15 15z" fill="#fdd35e"/><path d="m311 65c0-8.284-6.716-15-15-15h-40v30h40c8.284 0 15-6.716 15-15z" fill="#ff4d4d"/></g><g/><g/><g/><g/><g/><g/><g/><g/><g/><g/><g/><g/><g/><g/><g/></svg>