<?xml version="1.0" encoding="iso-8859-1"?>
<!-- Generator: Adobe Illustrator 19.0.0, SVG Export Plug-In . SVG Version: 6.00 Build 0)  -->
<svg version="1.1" id="Capa_1" xmlns="http://www.w3.org/2000/svg" xmlns:xlink="http://www.w3.org/1999/xlink" x="0px" y="0px"
	 viewBox="0 0 512 512" style="enable-background:new 0 0 512 512;" xml:space="preserve">
<path style="fill:#E5E5E5;" d="M478.4,153.401c-2.401-2.701-5.7-4.501-9.3-5.101l-44.101-5.999L380.9,136H45
	c-12.299,0-23.699,5.099-31.8,13.2S0,168.701,0,181v270c0,12.299,5.099,23.699,13.2,31.8S32.701,496,45,496h392
	c12.299,0,23.699-5.099,31.8-13.2S482,463.299,482,451V163.299C482,159.401,480.5,156.099,478.4,153.401z"/>
<path style="fill:#C8C6CD;" d="M482,163.299V451c0,12.299-5.099,23.699-13.2,31.8S449.299,496,437,496H242V136h138.9l44.099,6.301
	L469.1,148.3c3.6,0.601,6.899,2.401,9.3,5.101C480.5,156.099,482,159.401,482,163.299z"/>
<g>
	<path style="fill:#21AAF7;" d="M165,301c0,24.901-20.099,45-45,45s-45-20.099-45-45s20.099-45,45-45S165,276.099,165,301z"/>
	<path style="fill:#21AAF7;" d="M180,406v15c0,8.401-6.599,15-15,15H75c-8.401,0-15-6.599-15-15v-11.7
		c0-29.7,20.4-57.599,49.799-62.399C113.401,346.3,116.7,346,120,346C152.999,346,180,373.001,180,406z"/>
</g>
<g>
	<circle style="fill:#8B8892;" cx="347" cy="301" r="15"/>
	<circle style="fill:#8B8892;" cx="407" cy="301" r="15"/>
	<circle style="fill:#8B8892;" cx="287" cy="301" r="15"/>
	<path style="fill:#8B8892;" d="M407,376H287c-8.291,0-15-6.709-15-15s6.709-15,15-15h120c8.291,0,15,6.709,15,15
		S415.291,376,407,376z"/>
	<path style="fill:#8B8892;" d="M422,421c0,8.291-6.709,15-15,15H287c-8.291,0-15-6.709-15-15s6.709-15,15-15h120
		C415.291,406,422,412.709,422,421z"/>
</g>
<path style="fill:#32D736;" d="M392,16c-66.301,0-120,53.699-120,120s53.699,120,120,120s120-53.699,120-120S458.301,16,392,16z"/>
<path style="fill:#10BB67;" d="M512,136c0,66.301-53.699,120-120,120V16C458.301,16,512,69.699,512,136z"/>
<g>
	<path style="fill:#1689FC;" d="M165,301c0,24.901-20.099,45-45,45v-90C144.901,256,165,276.099,165,301z"/>
	<path style="fill:#1689FC;" d="M180,406v15c0,8.401-6.599,15-15,15h-45v-90C152.999,346,180,373.001,180,406z"/>
</g>
<path style="fill:#B7E0F6;" d="M447.499,116.499L392,172l-4.501,4.499C384.8,179.5,380.9,181,377,181s-7.8-1.5-10.499-4.501l-30-30
	c-6-5.7-6-15.298,0-20.999c5.7-6,15.298-6,20.999,0l19.5,19.199l15-15L426.501,95.5c5.7-6,15.298-6,20.999,0
	C453.5,101.201,453.5,110.799,447.499,116.499z"/>
<path style="fill:#A4D9F5;" d="M447.499,116.499L392,172v-42.301L426.501,95.5c5.7-6,15.298-6,20.999,0
	C453.5,101.201,453.5,110.799,447.499,116.499z"/>
<g>
</g>
<g>
</g>
<g>
</g>
<g>
</g>
<g>
</g>
<g>
</g>
<g>
</g>
<g>
</g>
<g>
</g>
<g>
</g>
<g>
</g>
<g>
</g>
<g>
</g>
<g>
</g>
<g>
</g>
</svg>
