<svg id="Icons" height="512" viewBox="0 0 60 60" width="512" xmlns="http://www.w3.org/2000/svg"><path d="m44 10v16h-5l-13-4.64-1-.36v-11z" fill="#b0d3f0"/><path d="m25 10v11l-1 .36-13 4.64h-5v-16z" fill="#b0d3f0"/><path d="m44 26h-5l-.52-2.59a3 3 0 0 0 -2.94-2.41h-21.08a3 3 0 0 0 -2.94 2.41l-.52 2.59h-5a3 3 0 0 0 -3 3v11h30l14-10.02v-.98a3 3 0 0 0 -3-3z" fill="#f0c419"/><path d="m4 44h9a0 0 0 0 1 0 0v5a2 2 0 0 1 -2 2h-5a2 2 0 0 1 -2-2v-5a0 0 0 0 1 0 0z" fill="#547580"/><path d="m31 39h-28a1 1 0 0 0 -1 1v4a1 1 0 0 0 1 1h28.67z" fill="#ecf0f1"/><path d="m58.467 32.529a.529.529 0 0 1 .533.516v6.843c0 8.563-5.389 15.83-13.594 19.036a1.126 1.126 0 0 1 -.812 0c-8.205-3.206-13.594-10.473-13.594-19.036v-6.843a.529.529 0 0 1 .533-.516 27.328 27.328 0 0 0 13.189-3.452.539.539 0 0 1 .556 0 27.328 27.328 0 0 0 13.189 3.452z" fill="#3b97d3"/><path d="m45.448 54.542a1.035 1.035 0 0 1 -.9 0 16.248 16.248 0 0 1 -9.548-14.654v-2.714a1 1 0 0 1 .87-.989 32.053 32.053 0 0 0 8.713-2.533.989.989 0 0 1 .834 0 32.066 32.066 0 0 0 8.713 2.533 1 1 0 0 1 .87.988v2.715a16.247 16.247 0 0 1 -9.552 14.654z" fill="#9fc9d3"/><path d="m44 8.54v1.46h-38v-1.46a5.4 5.4 0 0 1 3.63-5.09 46.547 46.547 0 0 1 15.37-2.45 46.547 46.547 0 0 1 15.37 2.45 5.4 5.4 0 0 1 3.63 5.09z" fill="#f0c419"/><circle cx="9.5" cy="32.5" fill="#e57e25" r="2.5"/><path d="m28 26h-6a1 1 0 0 1 0-2h6a1 1 0 0 1 0 2z" fill="#e57e25"/><rect fill="#ecf0f1" height="4" rx="1" width="12" x="19" y="31"/><rect fill="#f0c419" height="10" rx="1" width="5" x="1" y="12"/><rect fill="#f0c419" height="10" rx="1" width="5" x="44" y="12"/><path d="m24 10h2v11h-2z" fill="#90bae1"/></svg>