<svg id="Capa_1" enable-background="new 0 0 512 512" height="512" viewBox="0 0 512 512" width="512" xmlns="http://www.w3.org/2000/svg"><g><path d="m393.023 512h-274.046v-145.555c0-22.403 18.162-40.565 40.565-40.565h192.917c22.403 0 40.565 18.162 40.565 40.565v145.555z" fill="#deecf1"/><path d="m352.459 325.88h-43.862c22.403 0 40.565 18.162 40.565 40.565v145.555h43.862v-145.555c-.001-22.404-18.162-40.565-40.565-40.565z" fill="#a8d3d8"/><path d="m218.38 268.812v38.008l37.62 59.71 37.62-59.71v-38.008z" fill="#ffcebf"/><path d="m218.38 306.82-36.934 19.06 37.734 71.525c1.318 2.497 4.698 2.963 6.642.915l30.178-31.79z" fill="#cbe5e8"/><path d="m281.692 393.595-25.692-27.065-25.692 27.065 12.707 37.791h25.97z" fill="#017bae"/><path d="m243.015 431.386-12.707 80.614h51.384l-12.707-80.614z" fill="#017bae"/><path d="m327.761 331.173 2.793-5.293-36.934-19.06-37.62 59.71 22.139 23.322z" fill="#cbe5e8"/><path d="m209.115 512 155.753-184.179c-3.912-1.256-8.08-1.941-12.409-1.941h-20.221l-157.394 186.12z" fill="#444"/><path d="m218.38 303.383c11.539 4.973 24.256 7.733 37.62 7.733 13.364 0 26.081-2.76 37.62-7.733v-34.57h-75.24z" fill="#ffb09e"/><path d="m293.62 306.82-5.022 7.971 21.487 11.088c-3.724 7.058 2.424-.875-42.771 52.569l10.825 11.404 49.622-58.679 2.793-5.294z" fill="#a8d3d8"/><path d="m144.219 104.342h223.562v81.587h-223.562z" fill="#384949"/><path d="m349.842 146.742c-7.529-45.02-46.668-79.347-93.842-79.347-47.167 0-86.311 34.319-93.842 79.347-18.56-.739-33.627 14.104-33.627 32.279 0 18.204 15.097 33.016 33.627 32.279 7.531 45.028 46.675 79.347 93.842 79.347 47.167 0 86.311-34.319 93.842-79.347 18.56.739 33.627-14.104 33.627-32.279 0-18.209-15.102-33.016-33.627-32.279z" fill="#ffcebf"/><path d="m133.66 46.505c-12.021 4.924-16.446 19.675-9.121 30.403l23.681 34.684 107.78-15.915 107.779 15.914 23.681-34.684c7.325-10.728 2.9-25.478-9.121-30.403l-105.358-43.161c-10.882-4.458-23.08-4.458-33.962 0z" fill="#017297"/><path d="m144.219 105.71v27.454c25.277-22.439 65.968-37.03 111.781-37.03s86.504 14.59 111.781 37.03v-27.454c-55.641-49.395-168.006-49.319-223.562 0z" fill="#fec165"/><path d="m133.66 46.505c-12.021 4.924-16.446 19.675-9.121 30.403l23.681 34.684 107.78-15.915 107.779 15.914 23.681-34.684c7.325-10.728 2.9-25.478-9.121-30.403l-105.358-43.161c-10.882-4.458-23.08-4.458-33.962 0z" fill="#08a9f1"/><g><path d="m378.34 46.505-105.359-43.162c-10.102-4.138-21.337-4.428-31.601-.883 1.899.656-6.571-2.776 107.719 44.045 12.021 4.924 16.446 19.675 9.121 30.403l-21.003 30.761 26.563 3.922 23.681-34.684c7.324-10.727 2.899-25.477-9.121-30.402z" fill="#0290cf"/></g><path d="m365.649 129.736h-1.077c0-23.178.025-19.178-.086-23.363l-108.451-13.36-108.995 12.035v22.308l-2.822 5.809v.345c15.035 17.604 37.327 28.337 61.468 28.337h100.626c23.648 0 46.11-10.355 61.468-28.337v-.345z" fill="#0290cf"/><path d="m365.432 109.714-26.892-3.341v27.137c-15.358 17.982-37.82 28.337-61.468 28.337h29.241c23.648 0 46.11-10.355 61.468-28.337l-2.349-4.527z" fill="#017bae"/><g><path d="m144.219 105.71v27.454c25.277-22.439 65.968-37.03 111.781-37.03s86.504 14.59 111.781 37.03v-27.454c-55.641-49.395-168.006-49.319-223.562 0z" fill="#fec165"/><g><path d="m241.379 69.191c39.782 2.737 74.609 16.499 97.161 36.519v8.274c11.141 5.409 21.012 11.875 29.241 19.18v-27.454c-32.174-28.562-82.07-39.569-126.402-36.519z" fill="#fdb441"/></g><circle cx="256.036" cy="81.232" fill="#fedba6" r="26.061"/></g><g><g><path d="m209.553 209.55c-4.273 0-7.737-3.463-7.737-7.737v-14.582c0-4.273 3.464-7.737 7.737-7.737s7.737 3.463 7.737 7.737v14.582c0 4.274-3.464 7.737-7.737 7.737z" fill="#384949"/></g><g><path d="m302.447 209.55c-4.273 0-7.737-3.463-7.737-7.737v-14.582c0-4.273 3.464-7.737 7.737-7.737s7.737 3.463 7.737 7.737v14.582c0 4.274-3.464 7.737-7.737 7.737z" fill="#384949"/></g></g><g><path d="m256 255.305c-15.409 0-27.945-12.536-27.945-27.945 0-4.273 3.464-7.737 7.737-7.737s7.737 3.463 7.737 7.737c0 6.876 5.595 12.471 12.472 12.471s12.472-5.595 12.472-12.471c0-4.273 3.464-7.737 7.737-7.737s7.737 3.463 7.737 7.737c-.002 15.409-12.538 27.945-27.947 27.945z" fill="#384949"/></g></g></svg>